# xmcd CD database file
#
# Track frame offsets:
#	150
#	16796
#	39208
#	62315
#	91463
#	121935
#	144296
#	184149
#	206374
#	239537
#	258995
#	288919
#	309392
#	331506
#
# Disc length: 4797 seconds
#
# Revision: 1
# Processed by: cddbd v1.5.2PL0 Copyright (c) Steve Scherf et al.
# Submitted via: CDex 1.51
#
DISCID=ad12bb0e
DTITLE=Various Artist - Golden blues
DYEAR=2005
DGENRE=Blues
TTITLE0=Lucky Peterson - You are the one for me
TTITLE1=Johny Copeland - Catch Up With The Blues
TTITLE2=James Cotton - Cotton In The Kitchen
TTITLE3=Big Daddy Kinsey - Got My Mojo Workin
TTITLE4=Clarence 'Gatemouth' Brown - Swamp Ghost
TTITLE5=Robben Ford and The Blue Line - Tell Me I'm Your Man
TTITLE6=Robert Lockwood Jr. - My Daily Wish
TTITLE7=Larry Garner - Another Bad Day
TTITLE8=Joe Louis Walker - Part Of Me
TTITLE9=Lucky Peterson - Smooth Sailing
TTITLE10=Big Daddy Kinsey - Nine Below Zero
TTITLE11=Jimmy Smith and B.B.King - Theree O`Clock (Blues Edit)
TTITLE12=Pinetop Perkins - Who's Ol Muddy Shoes
TTITLE13=Billy Branch - The Blues Follow Me Arround
EXTD=YEAR: 2005
EXTT0=
EXTT1=
EXTT2=
EXTT3=
EXTT4=
EXTT5=
EXTT6=
EXTT7=
EXTT8=
EXTT9=
EXTT10=
EXTT11=
EXTT12=
EXTT13=
PLAYORDER=
